<?xml version="1.0" encoding="UTF-8" standalone="no"?>
<!-- Created with Inkscape (http://www.inkscape.org/) -->

<svg
   xmlns:dc="http://purl.org/dc/elements/1.1/"
   xmlns:cc="http://creativecommons.org/ns#"
   xmlns:rdf="http://www.w3.org/1999/02/22-rdf-syntax-ns#"
   xmlns:svg="http://www.w3.org/2000/svg"
   xmlns="http://www.w3.org/2000/svg"
   xmlns:sodipodi="http://sodipodi.sourceforge.net/DTD/sodipodi-0.dtd"
   xmlns:inkscape="http://www.inkscape.org/namespaces/inkscape"
   width="300"
   height="300"
   viewBox="0 0 300 300"
   version="1.1"
   id="svg8"
   inkscape:version="0.92.4 (5da689c313, 2019-01-14)"
   sodipodi:docname="calendar.svg">
  <defs
     id="defs2" />
  <sodipodi:namedview
     id="base"
     pagecolor="#ffffff"
     bordercolor="#666666"
     borderopacity="1.0"
     inkscape:pageopacity="0.0"
     inkscape:pageshadow="2"
     inkscape:zoom="0.98994949"
     inkscape:cx="130.07736"
     inkscape:cy="194.40043"
     inkscape:document-units="px"
     inkscape:current-layer="layer1"
     showgrid="false"
     units="px"
     inkscape:window-width="1920"
     inkscape:window-height="1057"
     inkscape:window-x="-8"
     inkscape:window-y="-8"
     inkscape:window-maximized="1" />
  <metadata
     id="metadata5">
    <rdf:RDF>
      <cc:Work
         rdf:about="">
        <dc:format>image/svg+xml</dc:format>
        <dc:type
           rdf:resource="http://purl.org/dc/dcmitype/StillImage" />
        <dc:title></dc:title>
      </cc:Work>
    </rdf:RDF>
  </metadata>
  <g
     inkscape:label="Layer 1"
     inkscape:groupmode="layer"
     id="layer1"
     transform="translate(0,-217.62498)">
    <path
       style="fill:#010101;stroke-width:0.4525218"
       d="M 10.395272,384.23294 V 259.26552 l 8.217932,0.29768 c 4.51987,0.16372 13.479801,0.29766 19.910959,0.29766 H 50.21719 l 0.0027,5.99592 c 0.0036,7.10947 0.454214,10.23209 2.102389,14.55289 3.225358,8.45551 10.138135,15.01911 18.937249,17.98069 2.724245,0.91692 4.022801,1.06325 9.276697,1.04536 5.567013,-0.0189 6.410179,-0.13393 9.502957,-1.29586 4.965029,-1.86531 7.037579,-3.23232 11.186038,-7.37814 2.66927,-2.66756 4.18947,-4.64797 5.38419,-7.01409 2.56824,-5.0864 2.97037,-7.01443 3.28315,-15.74137 l 0.28384,-7.91914 h 39.82191 39.82192 l 0.28696,7.69288 c 0.44104,11.82337 2.24463,16.58159 8.75234,23.09032 4.04619,4.04684 8.95077,6.86639 14.23119,8.18127 4.4249,1.10184 11.92367,0.70203 16.27726,-0.86785 8.94494,-3.22549 15.39106,-9.56402 18.63042,-18.31948 1.38999,-3.75688 1.4674,-4.30999 1.67528,-11.97113 l 0.21796,-8.03227 h 19.58378 19.58379 l 0.20868,8.03227 c 0.11478,4.41774 0.23751,60.51913 0.27274,124.66975 l 0.0641,116.63749 H 150.00003 10.395363 Z M 269.46399,409.41932 V 329.77548 H 149.99824 30.532493 l -0.116145,79.19131 c -0.0639,43.55523 -0.01928,79.44624 0.09926,79.75781 0.171885,0.45208 24.326096,0.54348 119.581882,0.45252 l 119.3665,-0.11397 z M 60.380006,471.52866 c -0.121746,-0.31726 -0.167288,-6.58171 -0.101211,-13.921 l 0.120136,-13.34417 h 15.612001 15.612002 v 13.80192 13.80191 l -15.510791,0.11909 c -12.238632,0.094 -15.557481,-0.003 -15.732137,-0.45775 z m 50.022584,-13.4692 v -14.03411 l 15.49887,0.11907 15.49887,0.11907 0.11966,13.91505 0.11968,13.91504 h -15.61855 -15.61853 z m 50.68244,0.006 v -14.02818 h 15.612 15.612 v 14.02818 14.02817 h -15.612 -15.612 z m 47.16885,0.11313 0.11967,-13.91505 15.49887,-0.11907 15.49888,-0.11907 v 14.03412 14.03411 H 223.75275 208.13421 Z M 60.480195,424.73547 c -0.169144,-0.16915 -0.307525,-6.38263 -0.307525,-13.80776 v -13.50024 h 15.844896 15.844897 l -0.119764,13.68878 -0.119765,13.68879 -15.417607,0.11898 c -8.479688,0.0654 -15.555998,-0.0195 -15.725132,-0.18855 z m 49.922395,-13.50014 v -13.80786 h 15.61863 15.61864 l -0.11977,13.68878 -0.11976,13.68879 -15.49887,0.11907 -15.49887,0.11907 z m 50.68244,-0.006 v -13.80192 h 15.612 15.612 v 13.80192 13.80191 h -15.612 -15.612 z m 47.36394,13.50024 c -0.16592,-0.16594 -0.30168,-6.3768 -0.30168,-13.80193 v -13.50023 h 15.612 15.61201 v 13.80192 13.80191 h -15.31033 c -8.42068,0 -15.44608,-0.13576 -15.612,-0.30169 z M 110.40259,365.07251 V 351.2706 h 15.612 15.612 v 13.80191 13.80191 h -15.612 -15.612 z m 50.68244,0 V 351.2706 h 15.612 15.612 v 13.80191 13.80191 h -15.612 -15.612 z m 47.06226,0 V 351.2706 h 15.612 15.61201 v 13.80191 13.80191 h -15.61201 -15.612 z M 74.525077,284.77244 c -6.292026,-1.69659 -11.105925,-6.34951 -13.366715,-12.91975 -0.856805,-2.49001 -1.280592,-23.13046 -0.581554,-28.32469 0.985656,-7.32401 4.801908,-12.6265 11.331806,-15.74502 3.226879,-1.54107 3.683473,-1.63499 7.948754,-1.63499 4.164693,0 4.772068,0.11691 7.623707,1.4675 3.898258,1.84628 6.122144,3.60122 8.268102,6.5246 3.227132,4.39622 3.485414,5.80334 3.682921,20.06425 0.194385,14.03551 -0.205789,17.6012 -2.394483,21.33592 -2.857014,4.87512 -7.301326,8.23849 -12.426633,9.40421 -3.965602,0.90196 -6.247181,0.86304 -10.085905,-0.17203 z m 140.942333,0.39797 c -4.7867,-0.94199 -10.1547,-4.70856 -12.56011,-8.81309 -2.71833,-4.63848 -2.9054,-5.96287 -2.9054,-20.56915 0,-14.18237 0.14692,-15.38211 2.42248,-19.78257 1.39441,-2.69651 5.26167,-6.40269 8.18016,-7.83946 12.45201,-6.1301 26.79534,1.67858 28.29466,15.40394 0.51256,4.69216 0.56278,19.80169 0.0808,24.31209 -1.25563,11.7505 -11.8962,19.57425 -23.5126,17.28824 z"
       id="path3859"
       inkscape:connector-curvature="0" />
  </g>
</svg>
