<?xml version="1.0" encoding="UTF-8" standalone="no"?>
<!-- Created with Inkscape (http://www.inkscape.org/) -->

<svg
   xmlns:dc="http://purl.org/dc/elements/1.1/"
   xmlns:cc="http://creativecommons.org/ns#"
   xmlns:rdf="http://www.w3.org/1999/02/22-rdf-syntax-ns#"
   xmlns:svg="http://www.w3.org/2000/svg"
   xmlns="http://www.w3.org/2000/svg"
   xmlns:sodipodi="http://sodipodi.sourceforge.net/DTD/sodipodi-0.dtd"
   xmlns:inkscape="http://www.inkscape.org/namespaces/inkscape"
   width="600"
   height="150"
   viewBox="0 0 600 150"
   version="1.1"
   id="svg8"
   inkscape:version="0.92.4 (5da689c313, 2019-01-14)"
   sodipodi:docname="logo.svg">
  <defs
     id="defs2" />
  <sodipodi:namedview
     id="base"
     pagecolor="#ffffff"
     bordercolor="#666666"
     borderopacity="1.0"
     inkscape:pageopacity="0.0"
     inkscape:pageshadow="2"
     inkscape:zoom="1.4"
     inkscape:cx="339.47318"
     inkscape:cy="23.453146"
     inkscape:document-units="px"
     inkscape:current-layer="layer1"
     showgrid="false"
     units="px"
     inkscape:window-width="1920"
     inkscape:window-height="1057"
     inkscape:window-x="-8"
     inkscape:window-y="-8"
     inkscape:window-maximized="1" />
  <metadata
     id="metadata5">
    <rdf:RDF>
      <cc:Work
         rdf:about="">
        <dc:format>image/svg+xml</dc:format>
        <dc:type
           rdf:resource="http://purl.org/dc/dcmitype/StillImage" />
        <dc:title></dc:title>
      </cc:Work>
    </rdf:RDF>
  </metadata>
  <g
     inkscape:label="Layer 1"
     inkscape:groupmode="layer"
     id="layer1"
     transform="translate(0,-972.51965)">
    <path
       inkscape:connector-curvature="0"
       id="path3863"
       d="m 91.623044,1111.7895 c -2.677207,-2.9843 -2.645036,-1.6443 -0.53633,-22.3304 1.033342,-10.1371 -0.411598,-13.0078 -8.987684,-17.856 -3.787507,-2.1409 -7.435429,-3.8928 -8.106511,-3.8928 -0.671073,0 -3.123688,2.5875 -5.450268,5.7498 -9.328951,12.6806 -19.318717,14.1984 -35.762916,5.4343 -12.873872,-6.8614 -15.601637,-11.468 -11.221432,-18.9503 1.010244,-1.7256 1.377507,-3.3406 0.816142,-3.5888 -0.561337,-0.2482 -3.713885,-2.0426 -7.005641,-3.9875 -7.1357323,-4.2162 -7.8488449,-6.8974 -3.579357,-13.4583 10.57414,-16.2494 14.944546,-22.0661 17.013039,-22.6434 1.289742,-0.3599 4.548543,0.2281 7.241784,1.3065 l 4.896833,1.9609 -5.621372,-0.7564 -5.621357,-0.7563 -8.252971,12.4034 c -4.539129,6.822 -8.252957,13.2463 -8.252957,14.2765 0,1.6964 4.438638,4.6677 16.866828,11.2911 2.393999,1.2759 7.696969,4.1325 11.784365,6.3481 6.850657,3.7135 7.665699,3.8836 10.425491,2.176 4.475019,-2.7688 21.313158,-29.8607 20.063071,-32.2808 -0.363037,-0.7028 -2.676675,-0.9542 -5.141445,-0.5586 -3.781539,0.6068 -5.522412,2.0535 -11.147021,9.2626 -5.792793,7.4248 -7.172027,8.5435 -10.533087,8.5435 -4.328564,0 -8.378185,-4.6765 -8.378185,-9.675 0,-3.535 16.525971,-23.7919 21.456657,-26.3008 5.035817,-2.5622 14.16494,-2.1765 19.707326,0.8329 2.590396,1.4065 10.956127,6.9596 18.59051,12.3401 8.473494,5.9721 15.082834,9.783 16.966684,9.783 2.32129,0 4.90161,-2.0972 10.41255,-8.4629 8.20205,-9.4741 12.13418,-10.8365 16.20124,-5.6133 4.07467,5.2328 2.9571,9.5024 -5.12647,19.5858 -10.84673,13.5301 -18.65762,16.7087 -29.65298,12.0672 -4.94974,-2.0895 -16.322738,-2.6809 -16.322738,-0.8488 0,0.6073 1.975953,2.1703 4.390995,3.4733 5.660472,3.054 11.446383,10.7588 13.130843,17.4855 1.05172,4.2002 1.03647,8.0653 -0.0735,18.6342 -1.46377,13.9373 -3.11026,19.6296 -6.07114,20.989 -3.319491,1.524 -6.615457,0.8072 -9.118931,-1.9833 z m 1.437537,-96.7175 c -5.190354,-2.7032 -8.607326,-9.3503 -8.515333,-16.56493 0.130532,-10.23457 6.5789,-18.01468 14.939324,-18.02462 8.680078,-0.012 14.896868,7.52665 14.904398,18.06918 0.009,13.58317 -10.83692,21.98477 -21.328389,16.52037 z"
       style="fill:#ececec;stroke-width:1.19029105"
       sodipodi:nodetypes="cccscscccsccccccscsscscssscssssssscsccccscccs" />
    <text
       xml:space="preserve"
       style="font-style:normal;font-variant:normal;font-weight:normal;font-stretch:normal;font-size:56.43742371px;line-height:1.25;font-family:'Berlin Sans FB';-inkscape-font-specification:'Berlin Sans FB, Normal';font-variant-ligatures:normal;font-variant-caps:normal;font-variant-numeric:normal;font-feature-settings:normal;text-align:center;letter-spacing:0px;word-spacing:0px;writing-mode:lr-tb;text-anchor:middle;fill:#ececec;fill-opacity:1;stroke:none;stroke-width:3.02338409;"
       x="206.06381"
       y="1047.2145"
       id="text3872"
       transform="scale(1.0000974,0.9999026)"><tspan
         sodipodi:role="line"
         id="tspan3870"
         x="206.06381"
         y="1047.2145"
         style="font-style:normal;font-variant:normal;font-weight:normal;font-stretch:normal;font-size:56.43742371px;font-family:'Berlin Sans FB';-inkscape-font-specification:'Berlin Sans FB, Normal';font-variant-ligatures:normal;font-variant-caps:normal;font-variant-numeric:normal;font-feature-settings:normal;text-align:center;writing-mode:lr-tb;text-anchor:middle;fill:#ececec;fill-opacity:1;stroke-width:3.02338409;"><tspan
           style="fill:#ececec;stroke-width:3.02338409;fill-opacity:1;"
           id="tspan3874">FUN</tspan></tspan></text>
    <text
       transform="scale(1.0000974,0.9999026)"
       id="text3864"
       y="1085.8867"
       x="388.39728"
       style="font-style:normal;font-variant:normal;font-weight:normal;font-stretch:normal;font-size:111.31639099px;line-height:1.25;font-family:'Berlin Sans FB';-inkscape-font-specification:'Berlin Sans FB, Normal';font-variant-ligatures:normal;font-variant-caps:normal;font-variant-numeric:normal;font-feature-settings:normal;text-align:center;letter-spacing:0px;word-spacing:0px;writing-mode:lr-tb;text-anchor:middle;fill:#ffc806;fill-opacity:1;stroke:none;stroke-width:5.96328068;"
       xml:space="preserve"><tspan
         style="font-style:normal;font-variant:normal;font-weight:normal;font-stretch:normal;font-size:111.31639099px;font-family:'Berlin Sans FB';-inkscape-font-specification:'Berlin Sans FB, Normal';font-variant-ligatures:normal;font-variant-caps:normal;font-variant-numeric:normal;font-feature-settings:normal;text-align:center;writing-mode:lr-tb;text-anchor:middle;fill:#ffc806;fill-opacity:1;stroke-width:5.96328068;"
         y="1085.8867"
         x="388.39728"
         id="tspan3862"
         sodipodi:role="line">TASK</tspan></text>
    <text
       xml:space="preserve"
       style="font-style:normal;font-variant:normal;font-weight:normal;font-stretch:normal;font-size:56.43742371px;line-height:1.25;font-family:'Berlin Sans FB';-inkscape-font-specification:'Berlin Sans FB, Normal';font-variant-ligatures:normal;font-variant-caps:normal;font-variant-numeric:normal;font-feature-settings:normal;text-align:center;letter-spacing:0px;word-spacing:0px;writing-mode:lr-tb;text-anchor:middle;fill:#ececec;fill-opacity:1;stroke:none;stroke-width:3.02338409;"
       x="553.62384"
       y="1086.1747"
       id="text3873"
       transform="scale(1.0000974,0.9999026)"><tspan
         sodipodi:role="line"
         id="tspan3871"
         x="553.62384"
         y="1086.1747"
         style="font-style:normal;font-variant:normal;font-weight:normal;font-stretch:normal;font-size:56.43742371px;font-family:'Berlin Sans FB';-inkscape-font-specification:'Berlin Sans FB, Normal';font-variant-ligatures:normal;font-variant-caps:normal;font-variant-numeric:normal;font-feature-settings:normal;text-align:center;writing-mode:lr-tb;text-anchor:middle;fill:#ececec;fill-opacity:1;stroke-width:3.02338409;"><tspan
           style="fill:#ececec;stroke-width:3.02338409;fill-opacity:1;"
           id="tspan3868">TIC</tspan></tspan></text>
  </g>
</svg>
